<?xml version="1.0" encoding="utf-8"?>
<!-- Generator: Adobe Illustrator 22.1.0, SVG Export Plug-In . SVG Version: 6.00 Build 0)  -->
<svg version="1.1" id="Layer_1" xmlns="http://www.w3.org/2000/svg" xmlns:xlink="http://www.w3.org/1999/xlink" x="0px" y="0px"
	 viewBox="0 0 288 33" style="enable-background:new 0 0 288 33;" xml:space="preserve">
<style type="text/css">
	.st0{fill:url(#SVGID_1_);}
	.st1{fill:url(#SVGID_2_);}
	.st2{fill:url(#SVGID_3_);}
	.st3{fill:#59A8DD;}
	.st4{fill:url(#SVGID_4_);}
	.st5{fill:url(#SVGID_5_);}
	.st6{fill:url(#SVGID_6_);}
	.st7{fill:url(#SVGID_7_);}
	.st8{fill:url(#SVGID_8_);}
	.st9{fill:url(#SVGID_9_);}
	.st10{fill:url(#SVGID_10_);}
	.st11{fill:url(#SVGID_11_);}
	.st12{fill:url(#SVGID_12_);}
	.st13{fill:url(#SVGID_13_);}
	.st14{fill:url(#SVGID_14_);}
	.st15{fill:url(#SVGID_15_);}
	.st16{fill:url(#SVGID_16_);}
	.st17{fill:#FFFFFF;}
	.st18{fill:url(#SVGID_17_);}
	.st19{fill:none;stroke:url(#SVGID_18_);stroke-miterlimit:10;}
	.st20{fill:url(#SVGID_19_);stroke:#FFFFFF;stroke-width:0.5;stroke-miterlimit:10;}
	.st21{fill:url(#SVGID_20_);stroke:#FFFFFF;stroke-width:0.5;stroke-miterlimit:10;}
	.st22{fill:none;stroke:#FFFFFF;stroke-miterlimit:10;}
</style>
<g>
	<linearGradient id="SVGID_1_" gradientUnits="userSpaceOnUse" x1="70.5251" y1="11.1011" x2="54.9301" y2="26.6961">
		<stop  offset="0" style="stop-color:#00A6FF"/>
		<stop  offset="0.6718" style="stop-color:#000000"/>
	</linearGradient>
	<path class="st0" d="M72.5,19.3c-0.4-0.9-1-1.6-1.7-2.2c0.4-0.9,0.6-1.8,0.6-2.7c0-0.8-0.2-1.6-0.5-2.3s-0.7-1.4-1.3-1.9
		c-0.6-0.5-1.2-1-1.9-1.3c-0.7-0.3-1.5-0.5-2.3-0.5h-8.6v20.1h9.9c0.9,0,1.7-0.2,2.5-0.5c0.8-0.3,1.5-0.8,2-1.4c0.6-0.6,1-1.3,1.4-2
		c0.3-0.8,0.5-1.6,0.5-2.5C73.2,21.1,73,20.2,72.5,19.3z M58.4,10.1h7c0.6,0,1.2,0.1,1.7,0.3c0.5,0.2,1,0.5,1.4,0.9
		c0.4,0.4,0.7,0.9,1,1.4c0.2,0.5,0.3,1.1,0.3,1.7c0,0.6-0.1,1.2-0.4,1.8c-0.2-0.1-0.5-0.2-0.7-0.3s-0.5-0.1-0.7-0.2
		c0.2-0.4,0.3-0.9,0.3-1.4c0-0.4-0.1-0.8-0.2-1.1c-0.2-0.3-0.4-0.7-0.6-0.9c-0.3-0.3-0.6-0.5-0.9-0.6c-0.3-0.2-0.7-0.2-1.1-0.2h-5.5
		v4.1h-1.5V10.1z M66.7,14.5c0,0.3-0.1,0.5-0.3,0.8c-0.2,0.2-0.4,0.4-0.6,0.5h-4.3v-2.5h3.9c0.3,0,0.6,0.1,0.9,0.4
		S66.7,14.1,66.7,14.5z M71.2,24c-0.3,0.6-0.6,1.1-1,1.5c-0.4,0.4-0.9,0.8-1.5,1C68,26.8,67.4,27,66.7,27h-8.3v-6.5h1.5v5h6.9
		c0.5,0,0.9-0.1,1.3-0.3c0.4-0.2,0.7-0.4,1-0.7s0.5-0.7,0.7-1C70,23,70,22.6,70,22.2c0-0.5-0.1-0.9-0.3-1.3c-0.2-0.4-0.4-0.7-0.7-1
		c-0.3-0.3-0.7-0.5-1-0.7c-0.4-0.2-0.8-0.3-1.3-0.3h-8.3v-1.5h8.3c0.7,0,1.3,0.1,1.9,0.4c0.6,0.3,1.1,0.6,1.5,1s0.8,1,1,1.5
		c0.3,0.6,0.4,1.2,0.4,1.9C71.5,22.8,71.4,23.4,71.2,24z M61.5,23.8v-3.3h5.2c0.5,0,0.9,0.2,1.2,0.5c0.3,0.3,0.5,0.7,0.5,1.2
		c0,0.5-0.2,0.9-0.5,1.2c-0.3,0.3-0.7,0.5-1.2,0.5H61.5z"/>
	<linearGradient id="SVGID_2_" gradientUnits="userSpaceOnUse" x1="91.468" y1="8.3167" x2="75.6647" y2="24.1201">
		<stop  offset="0" style="stop-color:#00A6FF"/>
		<stop  offset="0.6718" style="stop-color:#000000"/>
	</linearGradient>
	<path class="st1" d="M91.6,8.5v12.1c0,0.9-0.1,1.8-0.4,2.6c-0.3,0.8-0.7,1.6-1.2,2.2c-0.2,0.3-0.4,0.6-0.7,0.8
		c-0.2,0.2-0.5,0.5-0.8,0.7c-0.5,0.4-1,0.7-1.6,1c-1,0.5-2.2,0.7-3.4,0.7c-1.2,0-2.4-0.2-3.4-0.7c-0.6-0.3-1.1-0.6-1.6-1
		c-0.3-0.2-0.5-0.5-0.8-0.7c-0.2-0.2-0.5-0.5-0.7-0.8c-0.5-0.7-0.9-1.4-1.2-2.2c-0.3-0.8-0.4-1.7-0.4-2.6V8.5h1.6v7.3v4.8
		c0,0.8,0.1,1.5,0.4,2.2c0.3,0.7,0.6,1.3,1.1,1.9c0.2,0.3,0.5,0.5,0.8,0.8c0.3,0.2,0.6,0.5,0.9,0.7c0.5,0.3,1,0.5,1.6,0.7
		c0.6,0.2,1.2,0.2,1.8,0.2c0.6,0,1.2-0.1,1.8-0.2c0.6-0.2,1.1-0.4,1.6-0.7c0.6-0.4,1.1-0.9,1.6-1.4c0.5-0.6,0.8-1.2,1.1-1.9
		c0.3-0.7,0.4-1.4,0.4-2.2v-4.8V8.5H91.6z M80.2,24.3c-0.5-0.5-0.9-1-1.2-1.6c-0.3-0.6-0.4-1.3-0.4-2v-4.1v-2.2V8.5h1.6v4.8v1.8v1.8
		v3.7c0,0.5,0.1,0.9,0.3,1.3c0.2,0.4,0.4,0.8,0.7,1.1c0.3,0.3,0.7,0.6,1.1,0.7c0.4,0.2,0.8,0.3,1.3,0.3c0.5,0,0.9-0.1,1.3-0.3
		c0.4-0.2,0.8-0.4,1.1-0.7c0.3-0.3,0.6-0.7,0.7-1.1c0.2-0.4,0.3-0.9,0.3-1.3v-3.7v-1.8v-1.8V8.5h1.6v5.8v2.2v4.1
		c0,0.7-0.1,1.4-0.4,2c-0.3,0.6-0.7,1.2-1.2,1.6c-0.4,0.4-1,0.8-1.5,1c-0.6,0.2-1.2,0.4-1.9,0.4c-0.6,0-1.3-0.1-1.8-0.4
		C81.1,25,80.6,24.7,80.2,24.3z"/>
	<linearGradient id="SVGID_3_" gradientUnits="userSpaceOnUse" x1="122.822" y1="7.2533" x2="100.2003" y2="29.8751">
		<stop  offset="0" style="stop-color:#00A6FF"/>
		<stop  offset="0.6718" style="stop-color:#000000"/>
	</linearGradient>
	<path class="st2" d="M118.2,28.7h-15.8c-0.9,0-1.8-0.1-2.6-0.4c-0.8-0.3-1.6-0.7-2.2-1.2c-0.3-0.2-0.6-0.4-0.8-0.7
		c-0.2-0.2-0.5-0.5-0.7-0.8c-0.4-0.5-0.7-1-1-1.6c-0.5-1-0.7-4.2-0.7-5.4c0-1.2,0.2-4.4,0.7-5.4c0.3-0.6,0.6-1.1,1-1.6
		c0.2-0.3,0.5-0.5,0.7-0.8c0.2-0.2,0.5-0.5,0.8-0.7c0.7-0.5,1.4-0.9,2.2-1.2c0.8-0.3,1.7-0.4,2.6-0.4h15.8v1.6h-11h-4.8
		c-0.8,0-1.5,0.1-2.2,0.4c-0.7,0.3-1.3,0.6-1.9,1.1c-0.3,0.2-0.5,0.5-0.8,0.8c-0.2,0.3-0.5,0.6-0.7,0.9c-0.3,0.5-0.5,1-0.7,1.6
		c-0.2,0.6-0.2,3.2-0.2,3.8c0,0.6,0.1,3.2,0.2,3.8c0.2,0.6,0.4,1.1,0.7,1.6c0.4,0.6,0.9,1.1,1.4,1.6c0.6,0.5,1.2,0.8,1.9,1.1
		c0.7,0.3,1.4,0.4,2.2,0.4h4.8h11V28.7z M98.7,13.2c0.5-0.5,1-0.9,1.6-1.2c0.6-0.3,1.3-0.4,2-0.4H114h13.1h-16.5v1.6h1.1h13.5h-11.6
		h-11.3c-0.5,0-0.9,0.1-1.3,0.3c-0.4,0.2-0.8,0.4-1.1,0.7c-0.3,0.3-0.6,0.7-0.7,1.1c-0.2,0.4-0.3,2.9-0.3,3.3c0,0.5,0.1,2.9,0.3,3.3
		c0.2,0.4,0.4,0.8,0.7,1.1c0.3,0.3,0.7,0.6,1.1,0.7c0.4,0.2,0.9,0.3,1.3,0.3h11.3h11.6h-13.5h-1.1v1.6h16.5H114h-11.7
		c-0.7,0-1.4-0.1-2-0.4c-0.6-0.3-1.2-0.7-1.6-1.2c-0.4-0.4-0.8-1-1-1.5c-0.2-0.6-0.4-3.2-0.4-3.9c0-0.6,0.1-3.3,0.4-3.9
		C97.9,14.1,98.2,13.6,98.7,13.2z"/>
	<path class="st3" d="M132.5,28.7h-15.8c-0.9,0-1.8-0.1-2.6-0.4c-0.8-0.3-1.6-0.7-2.2-1.2c-0.3-0.2-0.6-0.4-0.8-0.7
		c-0.2-0.2-0.5-0.5-0.7-0.8c-0.4-0.5-0.7-1-1-1.6c-0.5-1-0.7-4.2-0.7-5.4c0-1.2,0.2-4.4,0.7-5.4c0.3-0.6,0.6-1.1,1-1.6
		c0.2-0.3,0.5-0.5,0.7-0.8c0.2-0.2,0.5-0.5,0.8-0.7c0.7-0.5,1.4-0.9,2.2-1.2c0.8-0.3,1.7-0.4,2.6-0.4h13.9v1.6h-9.1h-4.8
		c-0.8,0-1.5,0.1-2.2,0.4c-0.7,0.3-1.3,0.6-1.9,1.1c-0.3,0.2-0.5,0.5-0.8,0.8c-0.2,0.3-0.5,0.6-0.7,0.9c-0.3,0.5-0.5,1-0.7,1.6
		c-0.2,0.6-0.2,3.2-0.2,3.8c0,0.6,0.1,3.2,0.2,3.8c0.2,0.6,0.4,1.1,0.7,1.6c0.4,0.6,0.9,1.1,1.4,1.6c0.6,0.5,1.2,0.8,1.9,1.1
		c0.7,0.3,1.4,0.4,2.2,0.4h4.8h11V28.7z M112.9,13.2c0.5-0.5,1-0.9,1.6-1.2c0.6-0.3,1.3-0.4,2-0.4h11.7h13.1h-16.5v1.6h1.1h13.5H128
		h-11.3c-0.5,0-0.9,0.1-1.3,0.3c-0.4,0.2-0.8,0.4-1.1,0.7c-0.3,0.3-0.6,0.7-0.7,1.1c-0.2,0.4-0.3,2.9-0.3,3.3c0,0.5,0.1,2.9,0.3,3.3
		c0.2,0.4,0.4,0.8,0.7,1.1c0.3,0.3,0.7,0.6,1.1,0.7c0.4,0.2,0.9,0.3,1.3,0.3H128h11.6H126h-1.1v1.6h16.5h-13.1h-11.7
		c-0.7,0-1.4-0.1-2-0.4c-0.6-0.3-1.2-0.7-1.6-1.2c-0.4-0.4-0.8-1-1-1.5c-0.2-0.6-0.4-3.2-0.4-3.9c0-0.6,0.1-3.3,0.4-3.9
		C112.2,14.1,112.5,13.6,112.9,13.2z"/>
	<linearGradient id="SVGID_4_" gradientUnits="userSpaceOnUse" x1="135.0231" y1="11.9754" x2="115.8162" y2="31.1823">
		<stop  offset="8.549166e-02" style="stop-color:#FFD53F"/>
		<stop  offset="0.4957" style="stop-color:#FF9513"/>
		<stop  offset="0.8489" style="stop-color:#FF5C00"/>
	</linearGradient>
	<path class="st4" d="M143.9,27.9c0,0.7-0.6,1.2-1.2,1.2c-0.4,0-0.7-0.2-0.9-0.4h-25.1c-0.9,0-1.8-0.1-2.6-0.4
		c-0.8-0.3-1.6-0.7-2.2-1.2c-0.3-0.2-0.6-0.4-0.8-0.7c-0.2-0.2-0.5-0.5-0.7-0.8c-0.4-0.5-0.7-1-1-1.6c-0.5-1-0.7-4.2-0.7-5.4
		c0-1.3,0.2-4.4,0.7-5.4c0.3-0.6,0.6-1.1,1-1.6c0.2-0.3,0.5-0.5,0.7-0.8c0.3-0.2,0.5-0.5,0.8-0.7c0.7-0.5,1.4-0.9,2.2-1.2
		c0.8-0.3,1.7-0.4,2.6-0.4h13c0.2-0.3,0.6-0.4,0.9-0.4c0.7,0,1.2,0.6,1.2,1.2c0,0.7-0.5,1.2-1.2,1.2c-0.4,0-0.7-0.2-0.9-0.4h-13
		c-0.8,0-1.5,0.1-2.2,0.4c-0.7,0.3-1.3,0.6-1.9,1.1c-0.3,0.2-0.5,0.5-0.8,0.8c-0.2,0.3-0.5,0.5-0.7,0.9c-0.3,0.5-0.6,1-0.7,1.6
		c-0.2,0.6-0.3,3.2-0.3,3.8c0,0.6,0.1,3.2,0.3,3.8c0.2,0.6,0.4,1.1,0.7,1.6c0.4,0.6,0.9,1.1,1.4,1.6c0.6,0.5,1.2,0.8,1.9,1.1
		c0.7,0.3,1.4,0.4,2.2,0.4h25c0.2-0.3,0.6-0.4,0.9-0.4C143.3,26.6,143.9,27.2,143.9,27.9z"/>
	<linearGradient id="SVGID_5_" gradientUnits="userSpaceOnUse" x1="133.8113" y1="13.8336" x2="118.3199" y2="29.3249">
		<stop  offset="8.549166e-02" style="stop-color:#FFD53F"/>
		<stop  offset="0.4957" style="stop-color:#FF9513"/>
		<stop  offset="0.8489" style="stop-color:#FF5C00"/>
	</linearGradient>
	<path class="st5" d="M143.9,24.8c0,0.7-0.6,1.2-1.2,1.2c-0.4,0-0.7-0.2-0.9-0.4h-25.1c-0.7,0-1.4-0.1-2-0.4
		c-0.6-0.3-1.2-0.7-1.6-1.2c-0.4-0.4-0.8-1-1-1.5c-0.2-0.6-0.4-3.2-0.4-3.9c0-0.6,0.1-3.3,0.4-3.9c0.2-0.6,0.6-1.1,1-1.5
		c0.5-0.5,1-0.9,1.6-1.2c0.6-0.3,1.3-0.4,2-0.4h13c0.2-0.3,0.5-0.4,0.9-0.4c0.7,0,1.2,0.6,1.2,1.2c0,0.7-0.5,1.2-1.2,1.2
		c-0.4,0-0.7-0.2-0.9-0.4h-13c-0.5,0-0.9,0.1-1.3,0.3c-0.4,0.2-0.8,0.4-1.1,0.7s-0.6,0.7-0.7,1.1s-0.3,2.9-0.3,3.3
		c0,0.5,0.1,2.9,0.3,3.3c0.2,0.4,0.4,0.8,0.7,1.1c0.3,0.3,0.7,0.5,1.1,0.7c0.4,0.2,0.9,0.3,1.3,0.3h25.1c0.2-0.3,0.6-0.4,0.9-0.4
		C143.3,23.5,143.9,24.1,143.9,24.8z"/>
	<linearGradient id="SVGID_6_" gradientUnits="userSpaceOnUse" x1="159.975" y1="12.071" x2="147.28" y2="24.766">
		<stop  offset="0" style="stop-color:#00A6FF"/>
		<stop  offset="0.6718" style="stop-color:#000000"/>
	</linearGradient>
	<path class="st6" d="M151.2,11.5v17.1h1.6V13.2h6.7v-1.6H151.2z"/>
	<linearGradient id="SVGID_7_" gradientUnits="userSpaceOnUse" x1="176.6307" y1="11.6827" x2="160.7442" y2="27.5692">
		<stop  offset="0" style="stop-color:#00A6FF"/>
		<stop  offset="0.6718" style="stop-color:#000000"/>
	</linearGradient>
	<path class="st7" d="M178.7,17.4c0,1.4-0.3,2.6-0.8,3.8c-0.6,1.2-1.3,2.2-2.3,3l2.2,4.4h-1.8l-1.8-3.4c-0.2,0.1-0.4,0.2-0.6,0.3
		c-0.2,0.1-0.4,0.2-0.6,0.2l1.5,2.9h-1.8l-1.2-2.4c-0.6,0.1-1.1,0.2-1.7,0.2h-3.2v2.2h-1.6v-2.2h-1.4v2.2h-1.6v-3.9h7.9
		c1,0,2-0.2,2.9-0.6c0.9-0.4,1.7-0.9,2.3-1.6c0.7-0.7,1.2-1.5,1.6-2.3c0.4-0.9,0.6-1.8,0.6-2.9c0-1-0.2-2-0.6-2.8
		c-0.4-0.9-0.9-1.7-1.6-2.3c-0.7-0.7-1.4-1.2-2.3-1.6c-0.9-0.4-1.8-0.6-2.8-0.6h-6.3v11.6h1.4V11.5h4.8c0.8,0,1.6,0.2,2.3,0.5
		c0.7,0.3,1.3,0.7,1.9,1.3c0.5,0.5,1,1.2,1.3,1.9c0.3,0.7,0.5,1.5,0.5,2.3c0,0.8-0.2,1.6-0.5,2.3c-0.3,0.7-0.7,1.3-1.3,1.9
		c-0.5,0.5-1.2,1-1.9,1.3c-0.7,0.3-1.5,0.5-2.3,0.5l-7.9,0V8.4h7.9c1.2,0,2.4,0.2,3.5,0.7c1.1,0.5,2,1.1,2.9,1.9
		c0.8,0.8,1.5,1.8,1.9,2.9C178.4,15,178.7,16.2,178.7,17.4z M166.5,21.7h3.2c0.6,0,1.1-0.1,1.7-0.3c0.5-0.2,1-0.5,1.3-0.9
		c0.4-0.4,0.7-0.8,0.9-1.3c0.2-0.5,0.3-1.1,0.3-1.7c0-0.6-0.1-1.1-0.3-1.7c-0.2-0.5-0.5-1-0.9-1.4c-0.4-0.4-0.8-0.7-1.3-0.9
		c-0.5-0.2-1.1-0.3-1.7-0.3h-3.2V21.7z"/>
	<linearGradient id="SVGID_8_" gradientUnits="userSpaceOnUse" x1="199.3064" y1="16.2969" x2="183.7207" y2="31.8825">
		<stop  offset="0" style="stop-color:#00A6FF"/>
		<stop  offset="0.6718" style="stop-color:#000000"/>
	</linearGradient>
	<path class="st8" d="M182.2,28.6h-1.7l1.8-3.5l9.2-16.7l8.2,14.8h-14.5l-1.5,2.6L182.2,28.6z M186,28.6h-1.9l2.2-3.9h14l2.3,3.9h-2
		l-1.2-2.3h-2l1.3,2.3h-1.9l-1.2-2.3l-8.3,0L186,28.6z M191.5,11.9l-0.6,1.1l-4.8,8.7h1.9l3.5-6.1l3.4,6.1h2l-4.8-8.7L191.5,11.9z
		 M189.9,21.7l3.2,0l-1.6-2.8L189.9,21.7z"/>
	<linearGradient id="SVGID_9_" gradientUnits="userSpaceOnUse" x1="213.3728" y1="12.3109" x2="200.9126" y2="24.7712">
		<stop  offset="0" style="stop-color:#00A6FF"/>
		<stop  offset="0.6718" style="stop-color:#000000"/>
	</linearGradient>
	<path class="st9" d="M204.8,28.6V8.4h1.6v20.2H204.8z M207.9,28.6V8.4h1.6v20.2H207.9z"/>
	<linearGradient id="SVGID_10_" gradientUnits="userSpaceOnUse" x1="231.9625" y1="8.8481" x2="212.5904" y2="28.2202">
		<stop  offset="0" style="stop-color:#00A6FF"/>
		<stop  offset="0.6718" style="stop-color:#000000"/>
	</linearGradient>
	<path class="st10" d="M229.9,8.4h1.6v10.9v3.4v2.1l-16.9-13.1v16.9H213V8.4l13.8,10.7V8.4h1.6v11.8l1.5,1.2V8.4z M216.1,14.7
		l15.4,11.9v2.1L217.7,18v10.7h-1.6V14.7z"/>
	<linearGradient id="SVGID_11_" gradientUnits="userSpaceOnUse" x1="244.5396" y1="12.3109" x2="232.0793" y2="24.7712">
		<stop  offset="0" style="stop-color:#00A6FF"/>
		<stop  offset="0.6718" style="stop-color:#000000"/>
	</linearGradient>
	<path class="st11" d="M235.9,28.6V8.4h1.6v20.2H235.9z M239.1,28.6V8.4h1.6v20.2H239.1z"/>
	<linearGradient id="SVGID_12_" gradientUnits="userSpaceOnUse" x1="262.7404" y1="8.8481" x2="243.3683" y2="28.2202">
		<stop  offset="0" style="stop-color:#00A6FF"/>
		<stop  offset="0.6718" style="stop-color:#000000"/>
	</linearGradient>
	<path class="st12" d="M260.7,8.4h1.6v10.9v3.4v2.1l-16.9-13.1v16.9h-1.6V8.4l13.8,10.7V8.4h1.6v11.8l1.5,1.2V8.4z M246.9,14.7
		l15.4,11.9v2.1L248.5,18v10.7h-1.6V14.7z"/>
	<linearGradient id="SVGID_13_" gradientUnits="userSpaceOnUse" x1="282.7375" y1="17.3835" x2="277.6206" y2="22.5004">
		<stop  offset="0" style="stop-color:#00A6FF"/>
		<stop  offset="0.6718" style="stop-color:#000000"/>
	</linearGradient>
	<path class="st13" d="M283.2,17.8v6.9h-0.1l0,0l0.1,0c-0.5,0.6-1,1.2-1.6,1.6v-6.9h-5.3c-0.2,0.2-0.5,0.3-0.8,0.3
		c-0.7,0-1.2-0.6-1.2-1.2c0-0.7,0.5-1.2,1.2-1.2c0.4,0,0.8,0.2,1,0.5H283.2z"/>
	<linearGradient id="SVGID_14_" gradientUnits="userSpaceOnUse" x1="282.0898" y1="11.1958" x2="267.6297" y2="25.6559">
		<stop  offset="0" style="stop-color:#00A6FF"/>
		<stop  offset="0.6718" style="stop-color:#000000"/>
	</linearGradient>
	<path class="st14" d="M267,15.3c-0.5,1-0.7,2.1-0.7,3.3c0,1.2,0.2,2.3,0.7,3.3c0.5,1,1.1,1.9,1.9,2.7c0.8,0.8,1.7,1.4,2.8,1.8
		c1,0.4,2.2,0.7,3.4,0.7c1.3,0,2.5-0.3,3.7-0.8v-1.6c-0.5,0.3-1.1,0.5-1.7,0.7c-0.6,0.2-1.3,0.3-2,0.3c-1,0-1.9-0.2-2.8-0.5
		c-0.9-0.4-1.6-0.9-2.3-1.5c-0.7-0.6-1.2-1.4-1.5-2.2c-0.4-0.9-0.6-1.8-0.6-2.7c0-1,0.2-1.9,0.6-2.7c0.4-0.8,0.9-1.6,1.5-2.3
		c0.7-0.6,1.4-1.1,2.3-1.5c0.9-0.4,1.8-0.6,2.8-0.6s1.9,0.2,2.8,0.5c0.9,0.3,1.6,0.8,2.3,1.5l-1.1,1.1c-0.5-0.5-1.1-0.8-1.8-1.1
		c-0.7-0.3-1.4-0.4-2.2-0.4s-1.5,0.2-2.2,0.4c-0.7,0.3-1.3,0.7-1.8,1.2c-0.5,0.5-0.9,1.1-1.2,1.7c-0.3,0.7-0.4,1.4-0.4,2.1
		s0.1,1.4,0.4,2.1c0.3,0.6,0.7,1.2,1.2,1.7c0.5,0.5,1.1,0.9,1.8,1.2c0.7,0.3,1.4,0.4,2.2,0.4c0.7,0,1.4-0.1,2-0.4
		c0.6-0.2,1.2-0.6,1.7-1v-0.1h-2.4c-0.2,0.2-0.5,0.4-0.9,0.4c-0.7,0-1.2-0.6-1.2-1.2s0.5-1.2,1.2-1.2c0.4,0,0.7,0.1,0.9,0.4h3.9v2.5
		l0,0h0v3.9c-0.8,0.4-1.6,0.8-2.5,1c-0.9,0.3-1.8,0.4-2.8,0.4c-1.4,0-2.8-0.3-4-0.8c-1.3-0.5-2.4-1.3-3.3-2.2
		c-0.9-0.9-1.7-2-2.2-3.2c-0.5-1.2-0.8-2.5-0.8-3.9c0-1.4,0.3-2.7,0.8-3.9c0.5-1.2,1.3-2.3,2.2-3.2c0.9-0.9,2-1.6,3.3-2.2
		c1.3-0.5,2.6-0.8,4-0.8c1.4,0,2.7,0.3,4,0.8c1.2,0.5,2.3,1.2,3.3,2.1l-1.1,1.2c-0.8-0.8-1.7-1.3-2.7-1.8c-1-0.4-2.2-0.6-3.4-0.6
		c-1.2,0-2.3,0.2-3.4,0.7c-1.1,0.5-2,1.1-2.8,1.8C268,13.3,267.4,14.2,267,15.3z"/>
	<linearGradient id="SVGID_15_" gradientUnits="userSpaceOnUse" x1="155.9425" y1="4.9485" x2="140.1575" y2="20.7335">
		<stop  offset="0" style="stop-color:#00A6FF"/>
		<stop  offset="0.6718" style="stop-color:#000000"/>
	</linearGradient>
	<path class="st15" d="M159.4,8.4v1.6h-9.8v18.6h-1.6V13.2h-11.2c-0.2,0.3-0.6,0.4-0.9,0.4c-0.7,0-1.2-0.5-1.2-1.2
		c0-0.7,0.6-1.2,1.2-1.2c0.4,0,0.7,0.2,0.9,0.4h11.2v-1.5h-11.2c-0.2,0.3-0.6,0.4-1,0.4c-0.7,0-1.2-0.5-1.2-1.2
		c0-0.7,0.6-1.2,1.2-1.2c0.4,0,0.7,0.2,0.9,0.4H159.4z"/>
</g>
<g>
	<linearGradient id="SVGID_16_" gradientUnits="userSpaceOnUse" x1="42.0004" y1="7.0971" x2="12.6546" y2="36.4429">
		<stop  offset="8.549166e-02" style="stop-color:#FFD53F"/>
		<stop  offset="0.4957" style="stop-color:#FF9513"/>
		<stop  offset="0.8489" style="stop-color:#FF5C00"/>
	</linearGradient>
	<polyline class="st16" points="14.7,8.2 11.3,8.2 7.1,30.9 47.9,30.8 42.9,8 39.6,8 	"/>
	<polygon class="st17" points="15,12.9 19.5,10.6 34.8,10.6 39,13.1 40.6,10.7 34.5,5.9 19.6,6 13.4,10.7 	"/>
	<linearGradient id="SVGID_17_" gradientUnits="userSpaceOnUse" x1="30.0711" y1="1.2961" x2="24.145" y2="7.2222">
		<stop  offset="8.549166e-02" style="stop-color:#FFD53F"/>
		<stop  offset="0.4957" style="stop-color:#FF9513"/>
		<stop  offset="0.8489" style="stop-color:#FF5C00"/>
	</linearGradient>
	<polyline class="st18" points="21.5,4.5 22.3,3.2 32,3.2 32.7,4.5 	"/>
	<linearGradient id="SVGID_18_" gradientUnits="userSpaceOnUse" x1="13.653" y1="8.5621" x2="13.653" y2="8.5621">
		<stop  offset="8.549166e-02" style="stop-color:#FFD53F"/>
		<stop  offset="0.9655" style="stop-color:#FF9513"/>
	</linearGradient>
	<path class="st19" d="M13.7,8.6"/>
	<linearGradient id="SVGID_19_" gradientUnits="userSpaceOnUse" x1="35.4661" y1="2.4466" x2="18.7925" y2="19.1201">
		<stop  offset="8.549166e-02" style="stop-color:#FFD53F"/>
		<stop  offset="0.4957" style="stop-color:#FF9513"/>
		<stop  offset="0.8489" style="stop-color:#FF5C00"/>
	</linearGradient>
	<polygon class="st20" points="40.6,13.9 43.5,10.5 36.3,4.5 18.8,4.5 10.7,10.7 13.9,14.2 15,12.9 13.4,10.7 19.6,6 34.5,5.9 
		40.6,10.7 39,13.1 	"/>
	<linearGradient id="SVGID_20_" gradientUnits="userSpaceOnUse" x1="39.2554" y1="11.1896" x2="15.3517" y2="35.0933">
		<stop  offset="8.549166e-02" style="stop-color:#FFD53F"/>
		<stop  offset="0.4957" style="stop-color:#FF9513"/>
		<stop  offset="0.8489" style="stop-color:#FF5C00"/>
	</linearGradient>
	<polyline class="st21" points="11.1,30.9 12.4,13.9 19.5,9.9 35.2,9.9 42.3,14.3 43.7,30.9 	"/>
	<line class="st22" x1="36.3" y1="30.9" x2="35.2" y2="9"/>
	<line class="st22" x1="18.5" y1="30.9" x2="19.5" y2="9.2"/>
	<polyline class="st17" points="21.5,30.9 21.8,13.1 33,13.2 33.7,30.9 	"/>
	<polyline class="st17" points="38,30.8 36.8,14 41.4,16.2 42.5,30.9 	"/>
	<polyline class="st17" points="16.9,30.9 18,13.7 13.3,16.3 12.2,30.9 	"/>
	<rect x="5.1" y="30.6" class="st17" width="43.9" height="2.4"/>
</g>
</svg>
